<svg width="63" height="63" viewBox="0 0 63 63" fill="none" xmlns="http://www.w3.org/2000/svg">
<rect x="0.399902" y="0.0124512" width="62" height="62" rx="31" fill="#65B6C8" fill-opacity="0.12"/>
<path d="M50.6249 18.0125C51.1874 18.0125 51.7499 17.5203 51.7499 16.8875V14.6375C51.7499 14.075 51.1874 13.5125 50.6249 13.5125H12.3749C11.7421 13.5125 11.2499 14.075 11.2499 14.6375V16.8875C11.2499 17.5203 11.7421 18.0125 12.3749 18.0125H13.4296V45.0125H12.3749C11.7421 45.0125 11.2499 45.575 11.2499 46.1375V48.3875C11.2499 49.0203 11.7421 49.5125 12.3749 49.5125H29.2499V43.8875C29.2499 43.325 29.7421 42.7625 30.3749 42.7625H32.6249C33.1874 42.7625 33.7499 43.325 33.7499 43.8875V49.5125H50.6249C51.1874 49.5125 51.7499 49.0203 51.7499 48.3875V46.1375C51.7499 45.575 51.1874 45.0125 50.6249 45.0125H49.4999V18.0125H50.6249ZM29.2499 21.1765C29.2499 20.7546 29.6718 20.2625 30.0937 20.2625H32.8358C33.2577 20.2625 33.7499 20.7546 33.7499 21.1765V23.9187C33.7499 24.3406 33.2577 24.7625 32.8358 24.7625H30.0937C29.6718 24.7625 29.2499 24.3406 29.2499 23.9187V21.1765ZM29.2499 27.9265C29.2499 27.5046 29.6718 27.0125 30.0937 27.0125H32.8358C33.2577 27.0125 33.7499 27.5046 33.7499 27.9265V30.6687C33.7499 31.0906 33.2577 31.5125 32.8358 31.5125H30.0937C29.6718 31.5125 29.2499 31.0906 29.2499 30.6687V27.9265ZM20.2499 21.1765C20.2499 20.7546 20.6718 20.2625 21.0937 20.2625H23.8358C24.2577 20.2625 24.7499 20.7546 24.7499 21.1765V23.9187C24.7499 24.3406 24.2577 24.7625 23.8358 24.7625H21.0937C20.6718 24.7625 20.2499 24.3406 20.2499 23.9187V21.1765ZM23.8358 31.5125H21.0937C20.6718 31.5125 20.2499 31.0906 20.2499 30.6687V27.9265C20.2499 27.5046 20.6718 27.0125 21.0937 27.0125H23.8358C24.2577 27.0125 24.7499 27.5046 24.7499 27.9265V30.6687C24.7499 31.0906 24.2577 31.5125 23.8358 31.5125ZM24.7499 40.5125C24.7499 36.7859 27.703 33.7625 31.4999 33.7625C35.2265 33.7625 38.2499 36.7859 38.2499 40.5125H24.7499ZM42.7499 30.6687C42.7499 31.0906 42.2577 31.5125 41.8358 31.5125H39.0937C38.6718 31.5125 38.2499 31.0906 38.2499 30.6687V27.9265C38.2499 27.5046 38.6718 27.0125 39.0937 27.0125H41.8358C42.2577 27.0125 42.7499 27.5046 42.7499 27.9265V30.6687ZM42.7499 23.9187C42.7499 24.3406 42.2577 24.7625 41.8358 24.7625H39.0937C38.6718 24.7625 38.2499 24.3406 38.2499 23.9187V21.1765C38.2499 20.7546 38.6718 20.2625 39.0937 20.2625H41.8358C42.2577 20.2625 42.7499 20.7546 42.7499 21.1765V23.9187Z" fill="#00ACD9"/>
</svg>
