<svg width="62" height="62" viewBox="0 0 62 62" fill="none" xmlns="http://www.w3.org/2000/svg">
<rect width="62" height="62" rx="31" fill="#E3EDEF"/>
<path d="M46.85 40.5V34.875C46.85 33.0469 45.3031 31.5 43.475 31.5H42.35V21.375H37.85V31.5H33.35V21.375H28.85V31.5H24.35V21.375H19.85V31.5H18.725C16.8266 31.5 15.35 33.0469 15.35 34.875V40.5C17.3188 40.5 17.5297 38.25 20.5531 38.25C23.6469 38.25 23.8578 40.5 25.8266 40.5C27.725 40.5 28.0766 38.25 31.1 38.25C34.1234 38.25 34.4047 40.5 36.3031 40.5C38.2719 40.5 38.5531 38.25 41.5766 38.25C44.6 38.25 44.8109 40.5 46.85 40.5ZM46.85 49.5V42.75C43.7563 42.75 43.475 40.5 41.5766 40.5C39.6078 40.5 39.3969 42.75 36.3031 42.75C33.2797 42.75 33.0688 40.5 31.1 40.5C29.1313 40.5 28.85 42.75 25.8266 42.75C22.8031 42.75 22.5219 40.5 20.5531 40.5C18.5844 40.5 18.3734 42.75 15.35 42.75V49.5H46.85ZM22.1 20.25C23.2953 20.25 24.35 19.3359 24.35 17.4375C24.35 15.6094 22.9438 13.5 22.1 13.5C22.1 16.3828 19.85 15.8203 19.85 18C19.85 19.2656 20.8344 20.25 22.1 20.25ZM31.1 20.25C32.2953 20.25 33.35 19.3359 33.35 17.4375C33.35 15.6094 31.9438 13.5 31.1 13.5C31.1 16.3828 28.85 15.8203 28.85 18C28.85 19.2656 29.8344 20.25 31.1 20.25ZM40.1 20.25C41.2953 20.25 42.35 19.3359 42.35 17.4375C42.35 15.6094 40.9438 13.5 40.1 13.5C40.1 16.3828 37.85 15.8203 37.85 18C37.85 19.2656 38.8344 20.25 40.1 20.25Z" fill="#00ACD9"/>
</svg>
