<svg width="62" height="62" viewBox="0 0 62 62" fill="none" xmlns="http://www.w3.org/2000/svg">
<rect width="62" height="62" rx="31" fill="#E3EDEF"/>
<path d="M49.1 23.625C49.1 21.7969 47.5531 20.25 45.725 20.25H39.5375L38.6234 18C38.1313 16.6641 36.8656 15.75 35.4594 15.75H26.6703C25.2641 15.75 23.9984 16.6641 23.5063 18L22.6625 20.25H16.475C14.5766 20.25 13.1 21.7969 13.1 23.625V43.875C13.1 45.7734 14.5766 47.25 16.475 47.25H45.725C47.5531 47.25 49.1 45.7734 49.1 43.875V23.625ZM39.5375 33.75C39.5375 38.4609 35.7406 42.1875 31.1 42.1875C26.3891 42.1875 22.6625 38.4609 22.6625 33.75C22.6625 29.1094 26.3891 25.3125 31.1 25.3125C35.7406 25.3125 39.5375 29.1094 39.5375 33.75ZM37.2875 33.75C37.2875 30.375 34.475 27.5625 31.1 27.5625C27.6547 27.5625 24.9125 30.375 24.9125 33.75C24.9125 37.1953 27.6547 39.9375 31.1 39.9375C34.475 39.9375 37.2875 37.1953 37.2875 33.75Z" fill="#00ACD9"/>
</svg>
