<svg width="62" height="62" viewBox="0 0 62 62" fill="none" xmlns="http://www.w3.org/2000/svg">
<rect width="62" height="62" rx="31" fill="#E3EDEF"/>
<path d="M46.85 27H45.725L38.0609 17.5078C37.2172 16.4531 35.9516 15.8203 34.5453 15.75H19.4984C17.6703 15.75 15.9828 16.875 15.2797 18.6328L11.975 27.2109C10.0063 27.7031 8.6 29.4609 8.6 31.5V39.375C8.6 40.0078 9.09219 40.5 9.725 40.5H13.1C13.1 44.2969 16.0531 47.25 19.85 47.25C23.5766 47.25 26.6 44.2969 26.6 40.5H35.6C35.6 44.2969 38.5531 47.25 42.35 47.25C46.0766 47.25 49.1 44.2969 49.1 40.5H52.475C53.0375 40.5 53.6 40.0078 53.6 39.375V33.75C53.6 30.0234 50.5766 27 46.85 27ZM19.85 43.875C17.9516 43.875 16.475 42.3984 16.475 40.5C16.475 38.6719 17.9516 37.125 19.85 37.125C21.6781 37.125 23.225 38.6719 23.225 40.5C23.225 42.3984 21.6781 43.875 19.85 43.875ZM24.9125 27H16.7563L19.4984 20.25H24.9125V27ZM28.2875 27V20.25H34.5453L39.9594 27H28.2875ZM42.35 43.875C40.4516 43.875 38.975 42.3984 38.975 40.5C38.975 38.6719 40.4516 37.125 42.35 37.125C44.1781 37.125 45.725 38.6719 45.725 40.5C45.725 42.3984 44.1781 43.875 42.35 43.875Z" fill="#00ACD9"/>
</svg>
