<svg width="69" height="69" viewBox="0 0 69 69" fill="none" xmlns="http://www.w3.org/2000/svg">
<rect x="0.1875" y="0.1875" width="68" height="68" rx="34" fill="#2F2D28" fill-opacity="0.12"/>
<path d="M34.2875 14.8125C23.5844 14.8125 14.9125 23.4844 14.9125 34.1875C14.9125 44.8906 23.5844 53.5625 34.2875 53.5625C44.9906 53.5625 53.6625 44.8906 53.6625 34.1875C53.6625 23.4844 44.9906 14.8125 34.2875 14.8125ZM34.2875 49.8125C25.6156 49.8125 18.6625 42.8594 18.6625 34.1875C18.6625 25.5938 25.6156 18.5625 34.2875 18.5625C42.8813 18.5625 49.9125 25.5938 49.9125 34.1875C49.9125 42.8594 42.8813 49.8125 34.2875 49.8125ZM39.0531 41.6875C39.5219 42 40.0688 41.9219 40.3813 41.4531L41.8656 39.5C42.1781 39.0312 42.1 38.4844 41.6313 38.1719L36.475 34.3438V23.25C36.475 22.7812 36.0063 22.3125 35.5375 22.3125H33.0375C32.4906 22.3125 32.1 22.7812 32.1 23.25V36.1406C32.1 36.375 32.1781 36.6875 32.4125 36.8438L39.0531 41.6875Z" fill="#F3F3F3"/>
</svg>
