<svg width="62" height="62" viewBox="0 0 62 62" fill="none" xmlns="http://www.w3.org/2000/svg">
<rect width="62" height="62" rx="31" fill="#E3EDEF"/>
<path d="M45.725 45H16.475C15.8422 45 15.35 45.5625 15.35 46.125V48.375C15.35 49.0078 15.8422 49.5 16.475 49.5H45.725C46.2875 49.5 46.85 49.0078 46.85 48.375V46.125C46.85 45.5625 46.2875 45 45.725 45ZM50.225 22.5C48.3266 22.5 46.85 24.0469 46.85 25.875C46.85 26.4375 46.9203 26.8594 47.1313 27.2812L42.0688 30.375C40.9438 31.0078 39.5375 30.6562 38.9047 29.5312L33.2094 19.4766C33.9828 18.9141 34.475 17.9297 34.475 16.875C34.475 15.0469 32.9281 13.5 31.1 13.5C29.2016 13.5 27.725 15.0469 27.725 16.875C27.725 17.9297 28.2172 18.9141 28.9203 19.4766L23.225 29.5312C22.5922 30.6562 21.1859 31.0078 20.1313 30.375L14.9984 27.2812C15.2094 26.8594 15.35 26.4375 15.35 25.875C15.35 24.0469 13.8031 22.5 11.975 22.5C10.0766 22.5 8.6 24.0469 8.6 25.875C8.6 27.7734 10.0766 29.25 11.975 29.25C12.1156 29.25 12.3266 29.25 12.4672 29.25L17.6 42.75H44.6L49.6625 29.25C49.8031 29.25 50.0141 29.25 50.225 29.25C52.0531 29.25 53.6 27.7734 53.6 25.875C53.6 24.0469 52.0531 22.5 50.225 22.5Z" fill="#00ACD9"/>
</svg>
