<svg width="69" height="69" viewBox="0 0 69 69" fill="none" xmlns="http://www.w3.org/2000/svg">
<rect x="0.174805" y="0.6875" width="68" height="68" rx="34" fill="#F4F0ED"/>
<path d="M52.5326 19.7422C54.0912 18.1836 52.9779 15.4375 50.7514 15.4375H17.724C15.4975 15.4375 14.3842 18.1836 15.9428 19.7422L31.8998 35.625V49.875H27.7436C26.0365 49.875 24.7748 51.2109 24.7748 52.8438C24.7748 53.2148 24.9975 53.4375 25.3686 53.4375H43.1811C43.4779 53.4375 43.7748 53.2148 43.7748 52.8438C43.7748 51.2109 42.4389 49.875 40.8061 49.875H36.6498V35.625L52.5326 19.7422ZM48.1537 19L44.5912 22.5625H23.8842L20.3217 19H48.1537Z" fill="#C78665"/>
</svg>
