<svg width="62" height="62" viewBox="0 0 62 62" fill="none" xmlns="http://www.w3.org/2000/svg">
<rect width="62" height="62" rx="31" fill="#E3EDEF"/>
<path d="M31.6469 45.0938H27.8188V36.5488L39.3031 25.0645C40.3969 23.9707 39.6449 22.125 38.141 22.125H13.0531C11.5492 22.125 10.7973 23.9707 11.891 25.0645L23.4438 36.5488V45.0938H19.6156C18.0434 45.0938 16.8813 46.3242 16.8813 47.8281C16.8813 48.1699 17.0863 48.375 17.4281 48.375H33.8344C34.1078 48.375 34.3813 48.1699 34.3813 47.8281C34.3813 46.3242 33.1508 45.0938 31.6469 45.0938ZM40.9438 13.375C36.6371 13.375 33.0141 16.1777 31.6469 19.9375H35.2699C36.432 18.0234 38.4828 16.6562 40.9438 16.6562C44.4984 16.6562 47.5063 19.6641 47.5063 23.2188C47.5063 26.8418 44.4984 29.7812 40.9438 29.7812C39.9184 29.7812 39.0297 29.5762 38.2094 29.2344L35.8168 31.627C37.3207 32.5156 39.0297 33.0625 40.9438 33.0625C46.3441 33.0625 50.7875 28.6875 50.7875 23.2188C50.7875 17.8184 46.3441 13.375 40.9438 13.375Z" fill="#00ACD9"/>
</svg>
